<?xml version="1.0" encoding="utf-8"?>
<!-- Generator: Adobe Illustrator 16.0.0, SVG Export Plug-In . SVG Version: 6.00 Build 0)  -->
<!DOCTYPE svg PUBLIC "-//W3C//DTD SVG 1.1//EN" "http://www.w3.org/Graphics/SVG/1.1/DTD/svg11.dtd">
<svg version="1.1" id="Calque_1" xmlns="http://www.w3.org/2000/svg" xmlns:xlink="http://www.w3.org/1999/xlink" x="0px" y="0px"
	 width="20px" height="20px" viewBox="0 0 20 20" enable-background="new 0 0 20 20" xml:space="preserve">
<path fill="#FFFFFF" d="M20,8.042C20,3.601,15.522,0,10,0C4.477,0,0,3.601,0,8.042s4.477,8.042,10,8.042
	c0.868,0,1.697-0.116,2.5-0.284V20l5.353-6.981c-0.002-0.001-0.005,0-0.007-0.001C19.191,11.647,20,9.922,20,8.042z M10,14.475
	c-4.419,0-8-2.881-8-6.433c0-3.553,3.581-6.433,8-6.433c4.418,0,8,2.88,8,6.433C18,11.594,14.418,14.475,10,14.475z"/>
<line fill="none" stroke="#FFFFFF" stroke-width="2" stroke-miterlimit="10" x1="5.583" y1="5.756" x2="14.417" y2="5.756"/>
<line fill="none" stroke="#FFFFFF" stroke-width="2" stroke-miterlimit="10" x1="5.583" y1="10" x2="11.834" y2="10"/>
</svg>
