<?xml version="1.0" encoding="utf-8"?>
<!-- Generator: Adobe Illustrator 16.0.0, SVG Export Plug-In . SVG Version: 6.00 Build 0)  -->
<!DOCTYPE svg PUBLIC "-//W3C//DTD SVG 1.1//EN" "http://www.w3.org/Graphics/SVG/1.1/DTD/svg11.dtd">
<svg version="1.1" id="Calque_1" xmlns="http://www.w3.org/2000/svg" xmlns:xlink="http://www.w3.org/1999/xlink" x="0px" y="0px"
	 width="20px" height="20px" viewBox="0 0 20 20" enable-background="new 0 0 20 20" xml:space="preserve">
<path fill="#FFFFFF" d="M16.826,8.367c-0.166-0.708-0.439-1.372-0.803-1.979l1.789-2.633L17.088,3.03l-0.721-0.723l-2.594,1.758
	c-0.656-0.419-1.385-0.73-2.164-0.914l-0.586-3.057h-1.022H8.977L8.393,3.152C7.638,3.33,6.931,3.629,6.292,4.028L3.754,2.308
	L3.033,3.03L2.305,3.756l1.728,2.542C3.641,6.932,3.347,7.631,3.172,8.378L0.162,8.956v1.022v1.026l3.012,0.576
	c0.178,0.763,0.48,1.476,0.885,2.12L2.305,16.28l0.728,0.726l0.721,0.721l2.598-1.761c0.621,0.379,1.303,0.664,2.031,0.837
	l0.593,3.103h1.024h1.022l0.594-3.103c0.754-0.179,1.459-0.477,2.096-0.876l2.654,1.8l0.719-0.724l0.727-0.723l-1.814-2.67
	c0.375-0.618,0.656-1.296,0.828-2.02l3.072-0.587V9.979V8.957L16.826,8.367z M10.001,14.306c-2.326,0-4.211-1.886-4.211-4.211
	c0-2.326,1.885-4.211,4.211-4.211c2.325,0,4.21,1.885,4.21,4.211C14.211,12.42,12.326,14.306,10.001,14.306z"/>
</svg>
