<?xml version="1.0"?>
<!--Icons from directory ""-->
<svg xmlns="http://www.w3.org/2000/svg" width="20" height="160" viewBox="0 0 20 160"><svg width="20" height="20" id="castle" y="0"><path fill="#707071" d="M18.732 18.478c-.178-.914-.901-4.694-1.098-6.698h1.459l-3.787-6.094-1.475 2.374-3.668-6.112c.433-.184 1.344-.509 2.021-.324.917.25 1.688.313 1.917-.125 0 0-.416.354-1.813-.667C10.892-.189 9.913.103 9.913.103v1.654L6.149 8.028 4.693 5.686.906 11.78h1.666c-.186 2.004-.872 5.784-1.04 6.698H0v1.458h20v-1.458h-1.268zm-7.015-2.499H8.282S8.118 10.267 9.998 10c1.882.268 1.719 5.979 1.719 5.979z"/></svg><svg width="20" height="20" id="fiole" y="20"><path fill="#707071" d="M13.298 8.163V2.481h3.644V.28H3.366v2.201h3.379v5.638C6.586 8.281.95 14.073.95 16.966c0 2.936 3.222 2.752 3.222 2.752h11.657s3.222.184 3.222-2.752c-.001-2.772-5.181-8.21-5.753-8.803zm-3.145 9.801v-.02l-.153.01-.152-.01v.02c-1.443.074-7.601.238-6.481-2.465.988-2.387 2.85-4.432 3.619-5.216l.005.039c1.098-.848 1.418-1.689 1.503-2.218h.016v-.122c.027-.262 0-.428 0-.428V2.481h3.025v5.073s-.027.167 0 .428v.122h.016c.085.529.405 1.37 1.504 2.217.791.811 2.608 2.831 3.581 5.178 1.118 2.703-5.039 2.539-6.483 2.465z"/><path fill="#707071" d="M10.082 13.542H5.998s-1.271 1.792-.417 2.667h4.5v-2.667z"/><path fill="#707071" d="M9.918 13.542h4.083s1.271 1.792.416 2.667h-4.5v-2.667z"/></svg><svg width="20" height="20" id="gameboy" y="40"><path fill="#707071" d="M15.474.063V0H4.944v.007c-.403.036-2.335.319-2.335 2.41v15.292s.094 2.217 2.335 2.279V20h10.53v-.055c1.891-.277 1.99-2.236 1.99-2.236V2.417c0-1.71-1.295-2.208-1.99-2.354zM4.588 1.916h10.75V10H4.588V1.916zm4.48 13.404H7.23v1.918H5.47V15.32H3.633v-1.762h1.838V11.64h1.76v1.918h1.838v1.762zm3.23 3.221a1.56 1.56 0 1 1 1.561-1.557 1.56 1.56 0 0 1-1.561 1.557zm2.017-3.67a1.56 1.56 0 1 1 .001-3.12 1.56 1.56 0 0 1-.001 3.12z"/></svg><svg width="20" height="20" id="glove" y="60"><g fill="#707071"><path d="M13.971 14.596l-.074.04c.042-.024.074-.04.074-.04z"/><path d="M15.82 5.913s1.619-2.628-.334-4.065c-1.951-1.438-6.619-3.286-11.38 0S3.774 13.225 5.869 14.58c0 0-.476.514-.285 1.171.189.657-.31 1.15-.263 1.684.048.534.738.965.5 1.438-.237.473.357 1.191 4.595 1.109 4.236-.082 4.475-.615 4.236-1.355-.236-.739.191-.739.025-1.088-.166-.35-.619-.39-.262-.739.355-.351.928-1.151.309-2.219 0 0 2.477-1.683 3.143-4.353s-1-4.068-2.047-4.315zm-9.474 8.683c4.312 1.396 7.625 0 7.625 0-3.897 5.774-7.625 0-7.625 0zm5.533-5.8c-.055 2.685 2.199 1.84 1.971 3.479 0 0-1.154-.646-2.516-.845-.693-.102-1.188-.835-1.32-1.804-4.514 1.059-6.626-2.41-6.626-2.41s4.179.673 7.282-.51c.039-.065.074-.131.117-.195 1.418-2.087 3.367-1.979 5.033-.616 0 0-3.888.217-3.941 2.901z"/></g></svg><svg width="20" height="20" id="palette" y="80"><path fill="#707071" d="M19.766 8.553c-.805-3.021-6.019-7.287-12.794-6.165-6.775 1.122-9.139 9.479-4.558 8.92 0 0 .585.171.829.779.244.61-.487 1.949-.414 2.413.072.463.56 3.605 8.359 3.192 7.798-.415 9.382-6.115 8.578-9.139zM7.443 3.281a1.859 1.859 0 1 1 0 3.717 1.859 1.859 0 0 1 0-3.717zm-.28 11.25c-1.286 0-2.328-.87-2.328-1.943s1.042-1.942 2.328-1.942c1.285 0 2.328.869 2.328 1.942s-1.043 1.943-2.328 1.943zm5.593-6.937a1.859 1.859 0 1 1 0-3.717 1.859 1.859 0 0 1 0 3.717zm4.156 3.344a1.859 1.859 0 1 1 0-3.717 1.859 1.859 0 0 1 0 3.717z"/></svg><svg width="20" height="20" id="parchemin" y="100"><path fill="#707071" d="M17.925 16.752c-.268-1.181-1.824-1.154-1.824-1.154s-.863.049-2.004.154l-5.305 1.005s0-.242-.174-.485a1.523 1.523 0 0 0-.326-.202s.007-.022.035-.06c-.254-.156-.64-.266-1.254-.222 0 0 1.942-1.889 8.643-1.897h.004c-.254-3.234.904-8.923.221-11.198C15.108-.07 13.339-.11 13.339-.11L3.156 1.218c1.597.134 1.597 5.741 1.57 7.62-.027 1.877-.698 5.285-.188 7.994.509 2.71 2.039 3.247 2.793 3.159.754-.086 3.325-1.065 4.772-1.361 1.449-.295 4.615-.16 4.615-.16s1.476-.538 1.207-1.718zm-3.104-5.012c-.738-.422-.854-.686-1.324-.482-.473.203-.986.655-1.012.083-.025-.571.125-1.53 1.256-1.159s.525-1.896 1.561-.046c0-.001.26 2.026-.481 1.604zm.492-4.546s-.293 1.083-1.25.667c-.959-.417-.793-.417-2.375.398-1.584.815-1.418.352-2.625.06a1.94 1.94 0 0 0-1.917.584s-.833-.042 0-.917-.042-.292 0-1.458 2.958-.458 2.917.458.875.042 2.916-1.083 2.334 1.291 2.334 1.291zM6.842 3.611c-.25-.875 2.375-1.167 4.157-.792 1.783.375-.49-1.125 1.594-.958 2.082.167 2.416 2 1.875 1.979-.543-.021-2.166-.521-2.959.364-.791.885-.707-.177-1.875-.343-1.167-.166-2.333.708-2.333.708-1.833.042-.209-.083-.459-.958zm-.819 8.109s.741-2.359 1.655-1.639c.915.72.942 1.054 1.793.984.85-.068 1.902-.405 1.621.246-.283.649-1.059 1.674-2.611.878-1.553-.793-1.89 1.953-2.458-.469z"/></svg><svg width="20" height="20" id="star" y="120"><path fill="#707071" d="M19.89 7.942l-6.543-1.438L10.186.402 6.842 6.208.11 7.791l4.637 4.928-.846 6.655 6.505-2.907 5.843 3.129-.771-6.77 4.412-4.884zm-6.69 6.971l-2.992-1.604L6.877 14.8l.434-3.408L4.937 8.87l3.447-.813 1.712-2.971 1.62 3.123 3.35.736-2.26 2.5.394 3.468z"/></svg><svg width="20" height="20" id="trade" y="140"><path fill="#707071" d="M18.881 12.805l-.116.283a8.111 8.111 0 0 1-.343.67 9.45 9.45 0 0 1-1.553 2.021 8.404 8.404 0 0 1-1.303 1.07 7.837 7.837 0 0 1-1.642.869 8.424 8.424 0 0 1-1.868.512 6.177 6.177 0 0 1-.967.105l-.483.029c-.247.004-.322-.011-.491-.016a9.172 9.172 0 0 1-1.892-.254 7.339 7.339 0 0 1-1.728-.643 6.923 6.923 0 0 1-1.41-.944 7.527 7.527 0 0 1-1.031-1.078c-.561-.729-.873-1.428-1.023-1.929-.162-.505-.112-.809-.112-.809s.008.305.252.752a5.79 5.79 0 0 0 1.285 1.614c.324.276.685.556 1.102.788a5.87 5.87 0 0 0 1.359.58 6.081 6.081 0 0 0 1.528.262c.541.025.969.007 1.594-.088.123-.02.342-.042.387-.059l.385-.101c.256-.063.508-.124.742-.227.479-.167.92-.388 1.309-.642.393-.247.74-.525 1.027-.826.299-.285.537-.6.74-.894a6.287 6.287 0 0 0 .764-1.528c.063-.191.1-.334.121-.426a.911.911 0 0 1 .007-.063l.011-.053 3.349 1.025z"/><path fill="#707071" d="M19.921 13.672l-6.352-1.285 4.455-3.971zM1.58 6.989l.116-.284a8.44 8.44 0 0 1 .343-.67 9.5 9.5 0 0 1 1.553-2.021 8.408 8.408 0 0 1 1.303-1.071 7.906 7.906 0 0 1 1.642-.868 8.288 8.288 0 0 1 1.868-.512c.319-.068.644-.088.967-.105l.483-.03c.247-.004.322.011.491.016a9.246 9.246 0 0 1 1.892.253 7.314 7.314 0 0 1 1.727.643c.535.259 1.002.6 1.41.943.411.344.745.721 1.031 1.078.561.729.873 1.428 1.023 1.929.162.504.113.808.113.808s-.009-.303-.253-.752c-.231-.448-.651-1.047-1.285-1.613a6.873 6.873 0 0 0-1.101-.789 5.89 5.89 0 0 0-1.359-.58 6.141 6.141 0 0 0-1.529-.261 7.387 7.387 0 0 0-1.594.088c-.123.02-.342.042-.387.059l-.385.1c-.255.065-.507.127-.741.229-.48.167-.921.388-1.31.642-.393.247-.74.524-1.027.825-.299.286-.538.6-.74.894a6.302 6.302 0 0 0-.764 1.527c-.062.191-.1.334-.121.426a.911.911 0 0 1-.007.063l-.01.053-3.349-1.02z"/><path fill="#707071" d="M.079 6.159L6.43 7.444l-4.455 3.972z"/></svg></svg>
